<svg width="24" height="24" viewBox="0 0 24 24" fill="none" xmlns="http://www.w3.org/2000/svg">
<path d="M5.004 5.999H21.004V7.999H5.004V5.999ZM7.004 2H19.004V4H7.004V2ZM20.997 9.991H5.003C4.47061 9.99285 3.9607 10.2059 3.58518 10.5832C3.20966 10.9606 2.9992 11.4716 3 12.004V19.978C2.9992 20.5104 3.20966 21.0214 3.58518 21.3988C3.9607 21.7761 4.47061 21.9891 5.003 21.991H20.997C21.5294 21.9891 22.0393 21.7761 22.4148 21.3988C22.7903 21.0214 23.0008 20.5104 23 19.978V12.004C23.0008 11.4716 22.7903 10.9606 22.4148 10.5832C22.0393 10.2059 21.5294 9.99285 20.997 9.991ZM21 20H5V12H21V20Z" fill="white" fill-opacity="0.6"/>
<path d="M12.0039 18.9912H14.0039V17.0022H16.0039V14.9982H14.0039V12.9912H12.0039V15.0012H10.0039V17.0022H12.0039V18.9912Z" fill="white" fill-opacity="0.6"/>
</svg>
